<svg xmlns="http://www.w3.org/2000/svg" viewBox="0 0 315.93 146.26"><title>studios_ephemeres_logo</title><g id="Layer_2" data-name="Layer 2"><g id="Layer_1-2" data-name="Layer 1"><path d="M33,134.71q-4.34-.19-14.57-.19-12.22,0-18.45.19v-1.27a12.57,12.57,0,0,0,3.34-.51,2.26,2.26,0,0,0,1.43-1.46,11.47,11.47,0,0,0,.38-3.5V96.4a11.76,11.76,0,0,0-.38-3.49,2.26,2.26,0,0,0-1.43-1.46A12.57,12.57,0,0,0,0,90.94V89.67q6.23.18,18.45.19c6.23,0,10.66-.07,13.35-.19a69.55,69.55,0,0,0-.44,7.5,30.49,30.49,0,0,0,.19,3.94H30a29.72,29.72,0,0,0-1.14-6.06,5.06,5.06,0,0,0-2.36-3,10.56,10.56,0,0,0-5-.93H16.22a11.75,11.75,0,0,0-3.34.34,2.26,2.26,0,0,0-1.43,1.43,11.79,11.79,0,0,0-.38,3.5v15h4.2a5.21,5.21,0,0,0,3.44-1A5.16,5.16,0,0,0,20.32,108a21.7,21.7,0,0,0,.67-3.65l.19-1.21h1.46q-.18,2.67-.18,6v3q0,3.25.37,9H21.38c0-.29-.17-1.32-.39-3.08a6.18,6.18,0,0,0-1.75-4,5.63,5.63,0,0,0-4-1.34H11.08v15.26a11.86,11.86,0,0,0,.38,3.51A2.18,2.18,0,0,0,12.89,133a11.08,11.08,0,0,0,3.34.35h4.65a13.67,13.67,0,0,0,6-1.19,6.33,6.33,0,0,0,3-3.37,25.67,25.67,0,0,0,1.39-6.84h1.47a41.27,41.27,0,0,0-.19,4.58c0,2.45.16,5.18.46,8.19ZM25.5,75.17a2.35,2.35,0,0,1,2,1.08,2.12,2.12,0,0,1,.38,1.22,3,3,0,0,1-1.71,2.43,28.13,28.13,0,0,1-4.59,2,73.23,73.23,0,0,0-8.21,3.64l-.43-.77c1.73-1.32,3.22-2.54,4.48-3.64l2.32-2.06a30.85,30.85,0,0,1,3.88-3.24,3.67,3.67,0,0,1,1.9-.7Z"/><path d="M64.28,102.91a12.19,12.19,0,0,1,4.22,5.4,21.49,21.49,0,0,1,1.53,8.5A26.72,26.72,0,0,1,68.48,126a15.86,15.86,0,0,1-4.86,6.94,12.49,12.49,0,0,1-8.17,2.67,10.05,10.05,0,0,1-4.38-1,7.74,7.74,0,0,1-3-2.48v8.15a4,4,0,0,0,1.53,3.64,8.49,8.49,0,0,0,4.58,1v1.34l-1.46-.06c-3.94-.13-6.52-.19-7.69-.19s-3.32.08-6.87.25v-1.34a4.72,4.72,0,0,0,3.27-.86,4.09,4.09,0,0,0,.91-3.08v-32.1a6.69,6.69,0,0,0-1.08-4.26,4.58,4.58,0,0,0-3.75-1.33V102c1.31.13,2.63.2,3.95.2a20.85,20.85,0,0,0,6.61-.89V108a11.46,11.46,0,0,1,4.07-5.13,11.12,11.12,0,0,1,12.19,0Zm-.42,14.82q0-14.72-7.38-14.71a7.43,7.43,0,0,0-5.14,2.06A11.85,11.85,0,0,0,48,111v19.08a7.21,7.21,0,0,0,2.61,3,7.45,7.45,0,0,0,4.14,1.11q9.09,0,9.09-16.46Z"/><path d="M84.85,108.7a11.86,11.86,0,0,1,4.42-5.83,11.59,11.59,0,0,1,6.4-1.8,8.83,8.83,0,0,1,6.73,2.42,7.3,7.3,0,0,1,1.73,3.18,21.74,21.74,0,0,1,.5,5.15v17a4.73,4.73,0,0,0,1.09,3.64,5.61,5.61,0,0,0,3.75,1v1.34c-3.91-.17-6.45-.26-7.64-.26s-3.56.09-7.12.26v-1.41a4.44,4.44,0,0,0,3.28-1,5.39,5.39,0,0,0,.92-3.64V110.41a11.71,11.71,0,0,0-1-5.44c-.68-1.21-2-1.86-4.14-1.86a7.58,7.58,0,0,0-4.6,1.45,9.88,9.88,0,0,0-3.16,4.1,14.83,14.83,0,0,0-1.14,6v14.18a5.28,5.28,0,0,0,.92,3.64,4.39,4.39,0,0,0,3.28,1v1.33c-3.57-.17-5.93-.25-7.12-.25s-3.74.08-7.64.25v-1.38a5.56,5.56,0,0,0,3.75-1,4.76,4.76,0,0,0,1.08-3.64V92.54A6.69,6.69,0,0,0,78,88.28,4.52,4.52,0,0,0,74.29,87V85.61c1.36.12,2.67.19,3.95.19a20.82,20.82,0,0,0,6.61-.89V108.7Z"/><path d="M139.87,127.08a12.68,12.68,0,0,1-4.29,6.07,11.78,11.78,0,0,1-7.61,2.51,14.53,14.53,0,0,1-7.82-2.06,13.34,13.34,0,0,1-5.06-5.79,20,20,0,0,1-1.75-8.62,23.74,23.74,0,0,1,1.79-9.6,14.16,14.16,0,0,1,5-6.27,13.16,13.16,0,0,1,7.58-2.19q5.71,0,8.8,3.46t3.08,10.53H119.7a39.46,39.46,0,0,0-.18,4.07,18.18,18.18,0,0,0,1.36,7.28,11.65,11.65,0,0,0,3.64,4.8,7.76,7.76,0,0,0,4.74,1.68,10.11,10.11,0,0,0,5.41-1.45,10.88,10.88,0,0,0,3.93-4.86l1.27.44Zm-17.56-21.85c-1.44,1.94-2.33,4.86-2.67,8.64H133.5a18,18,0,0,0-1.43-8.26,4.93,4.93,0,0,0-4.6-3.32,6.3,6.3,0,0,0-5.16,2.92v0Zm13-20.42a3.75,3.75,0,0,1-.89,2.16,24.59,24.59,0,0,1-3.64,3.5c-.29.25-1.07,1-2.32,2.12s-2.62,2.52-4.1,4l-.7-.58q2.35-3.75,4.39-7.69a31.65,31.65,0,0,1,2.55-4.4,3,3,0,0,1,2.43-1.39,2,2,0,0,1,1.39.45,2.3,2.3,0,0,1,.89,1.78Z"/><path d="M194.38,132.4a5.62,5.62,0,0,0,3.75,1v1.33c-3.9-.17-6.45-.25-7.63-.25s-3.56.08-7.13.25v-1.34a4.39,4.39,0,0,0,3.28-1,5.28,5.28,0,0,0,.92-3.64V110.41a22.3,22.3,0,0,0-.28-3.91,4.38,4.38,0,0,0-1.33-2.42,4.72,4.72,0,0,0-3.22-1,7.1,7.1,0,0,0-4.4,1.52,10.19,10.19,0,0,0-3.08,4.17,14.87,14.87,0,0,0-1.1,5.82v14.18a4.76,4.76,0,0,0,1.08,3.64,5.61,5.61,0,0,0,3.75,1v1.34c-3.91-.17-6.45-.26-7.64-.26s-3.56.09-7.12.26v-1.41a4.44,4.44,0,0,0,3.28-1,5.39,5.39,0,0,0,.92-3.64V110.41a21.4,21.4,0,0,0-.3-3.91,4.23,4.23,0,0,0-1.33-2.42,4.67,4.67,0,0,0-3.2-1,7,7,0,0,0-4.4,1.52,10,10,0,0,0-3.08,4.2A15,15,0,0,0,155,114.7v14.12a5.42,5.42,0,0,0,.92,3.64,4.43,4.43,0,0,0,3.28,1v1.34q-5.34-.25-7.12-.26c-1.22,0-3.73.09-7.63.26v-1.41a5.56,5.56,0,0,0,3.75-1,4.85,4.85,0,0,0,1.09-3.64V108.83a6.84,6.84,0,0,0-1.09-4.26,4.58,4.58,0,0,0-3.75-1.33V101.9a38.23,38.23,0,0,0,3.94.2,20.85,20.85,0,0,0,6.61-.89v7.5a12,12,0,0,1,4.33-5.81A10.64,10.64,0,0,1,165.4,101a7.6,7.6,0,0,1,8.59,7.51,10.81,10.81,0,0,1,10.56-7.5,8.67,8.67,0,0,1,6.61,2.43,7.27,7.27,0,0,1,1.63,3.24,22.26,22.26,0,0,1,.47,5.08v17a4.77,4.77,0,0,0,1.12,3.62Z"/><path d="M228.54,127.08a12.64,12.64,0,0,1-4.3,6.07,11.79,11.79,0,0,1-7.6,2.51,14.59,14.59,0,0,1-7.83-2.06,13.52,13.52,0,0,1-5.06-5.79,20,20,0,0,1-1.73-8.62,23.73,23.73,0,0,1,1.77-9.6,14.16,14.16,0,0,1,5-6.27,13.16,13.16,0,0,1,7.58-2.19q5.72,0,8.8,3.46t3.1,10.53H208.38a36.85,36.85,0,0,0-.2,4.07,18.36,18.36,0,0,0,1.36,7.28,11.8,11.8,0,0,0,3.64,4.8,7.78,7.78,0,0,0,4.74,1.68,10.08,10.08,0,0,0,5.41-1.45,11,11,0,0,0,3.95-4.86l1.26.44ZM209.9,82.55a3.08,3.08,0,0,1,2.42,1.4,31,31,0,0,1,2.55,4.39q2,3.94,4.38,7.7l-.69.57c-1.49-1.53-2.85-2.88-4.1-4s-2-1.87-2.32-2.13A24,24,0,0,1,208.5,87a3.86,3.86,0,0,1-.9-2.16,2.3,2.3,0,0,1,.9-1.79,2,2,0,0,1,1.4-.45ZM211,105.21c-1.44,1.94-2.33,4.85-2.67,8.64h13.88a18.46,18.46,0,0,0-1.43-8.27,5,5,0,0,0-4.62-3.31,6.3,6.3,0,0,0-5.16,2.94Z"/><path d="M257.06,102.52a4.67,4.67,0,0,1,1.62,3.57,4.33,4.33,0,0,1-1,2.83,3.24,3.24,0,0,1-2.65,1.21,3.42,3.42,0,0,1-2.43-.88,3.11,3.11,0,0,1-1-2.43,4,4,0,0,1,2.16-3.44,1.53,1.53,0,0,0-1.34-.64,6.41,6.41,0,0,0-4.51,1.94,13.61,13.61,0,0,0-3.18,4.74,13.91,13.91,0,0,0-1.14,5.28v13.48a4.52,4.52,0,0,0,1.69,4.07,9,9,0,0,0,5.05,1.15v1.34l-1.53-.06c-4.33-.14-7.08-.2-8.27-.2s-3.69.1-7.5.26v-1.37a5.57,5.57,0,0,0,3.75-1,4.84,4.84,0,0,0,1.08-3.64V108.83a6.83,6.83,0,0,0-1.08-4.26,4.59,4.59,0,0,0-3.75-1.33V101.9a38.37,38.37,0,0,0,3.94.2,20.92,20.92,0,0,0,6.62-.89v8a14.9,14.9,0,0,1,3.64-5.67,7.75,7.75,0,0,1,5.56-2.42,6,6,0,0,1,4.23,1.45Z"/><path d="M287.75,127.08a12.68,12.68,0,0,1-4.29,6.07,11.81,11.81,0,0,1-7.6,2.51A14.53,14.53,0,0,1,268,133.6a13.34,13.34,0,0,1-5.06-5.79,20,20,0,0,1-1.75-8.62,23.73,23.73,0,0,1,1.78-9.6,14.06,14.06,0,0,1,5-6.27,13.17,13.17,0,0,1,7.56-2.19,11.17,11.17,0,0,1,8.81,3.46q3.09,3.48,3.09,10.53H267.59a36.84,36.84,0,0,0-.19,4.07,18.16,18.16,0,0,0,1.37,7.28,11.57,11.57,0,0,0,3.64,4.8,7.79,7.79,0,0,0,4.75,1.68,10,10,0,0,0,5.4-1.45,10.9,10.9,0,0,0,3.94-4.86l1.25.44ZM270.2,105.23c-1.44,1.94-2.33,4.86-2.67,8.64h13.86a18.26,18.26,0,0,0-1.43-8.26,5,5,0,0,0-4.61-3.32,6.27,6.27,0,0,0-5.15,2.92v0Z"/><path d="M307.78,101.81a9.14,9.14,0,0,1,2.87,1.65,2.2,2.2,0,0,0,1.14.51c.76,0,1.21-.94,1.41-2.81h1.45q-.25,3.12-.25,10.82h-1.46a16.1,16.1,0,0,0-2.71-6.93,6.9,6.9,0,0,0-5.94-2.75,5.41,5.41,0,0,0-3.75,1.32,4.55,4.55,0,0,0-1.46,3.64A5,5,0,0,0,300.6,111a28.72,28.72,0,0,0,4.85,3.64q.57.31,1.71,1.08a52.31,52.31,0,0,1,4.71,3.37,12.29,12.29,0,0,1,2.89,3.37,8.57,8.57,0,0,1,1.12,4.39,7.71,7.71,0,0,1-3.15,6.55,12.55,12.55,0,0,1-7.73,2.35,13,13,0,0,1-5-.88,13.91,13.91,0,0,1-2.61-1.73l-.57-.25c-.29,0-.56.22-.8.64a6.15,6.15,0,0,0-.54,1.77H294c.17-2.42.27-6.65.27-12.72h1.45a22.28,22.28,0,0,0,2.55,9c1.22,2,3.32,2.95,6.29,2.95a6,6,0,0,0,3.95-1.46,5.69,5.69,0,0,0,1.72-4.58,5.8,5.8,0,0,0-1.69-4.2,31.71,31.71,0,0,0-5.51-4.13q-3.12-2-4.85-3.25a11.24,11.24,0,0,1-2.83-3.12,8,8,0,0,1-1.14-4.32,7.28,7.28,0,0,1,2.66-6.07,10.6,10.6,0,0,1,6.74-2.1,10.9,10.9,0,0,1,4.13.59Z"/><path d="M31.25,6.36A29.73,29.73,0,0,1,37.53,9c.67.36,1.22.65,1.78.9a3.13,3.13,0,0,0,1.31.36,1.39,1.39,0,0,0,1.21-.95,10.57,10.57,0,0,0,.73-3h2.07q-.43,6.53-.44,22.07h-2a30.77,30.77,0,0,0-2.35-9.86,20.74,20.74,0,0,0-5.44-7.68,11.71,11.71,0,0,0-7.95-3,9.81,9.81,0,0,0-6.69,2.21,7.82,7.82,0,0,0-2.57,6.2,10.14,10.14,0,0,0,1.36,5.33,16.83,16.83,0,0,0,4,4.4q2.63,2.13,8.6,6.28a7.45,7.45,0,0,1,1,.64l1,.71a85.28,85.28,0,0,1,8,6.07,22,22,0,0,1,4.86,6.2A17.29,17.29,0,0,1,47.74,54a15,15,0,0,1-3.3,9.9A19.8,19.8,0,0,1,35.53,70a36.79,36.79,0,0,1-12.31,2A38.9,38.9,0,0,1,14,71.07a33.79,33.79,0,0,1-6.82-2.43,6.55,6.55,0,0,0-3.08-1.21,1.4,1.4,0,0,0-1.22.95,11.27,11.27,0,0,0-.73,3H0q.36-6.15.37-26.23H2.44Q3.07,55.94,7,62.63A12.84,12.84,0,0,0,18.9,69.32a12.22,12.22,0,0,0,8-2.41A7.86,7.86,0,0,0,29.8,60.4a13,13,0,0,0-3.2-8.82,52.35,52.35,0,0,0-10-8.19,104.14,104.14,0,0,1-8.69-6.32,23.32,23.32,0,0,1-5.33-6.29A16.1,16.1,0,0,1,.5,22.5,14.75,14.75,0,0,1,3.58,13a18,18,0,0,1,8.18-5.7A32.7,32.7,0,0,1,22.93,5.41a30.34,30.34,0,0,1,8.32,1Z"/><path d="M73.81,23.77H82.7v1.8H73.84V63.11a3.89,3.89,0,0,0,.63,2.53,2.62,2.62,0,0,0,2.09.73A6,6,0,0,0,79,65.74a7,7,0,0,0,2.43-2l1.36,1.08A13.88,13.88,0,0,1,69.93,72q-6.24,0-9.32-3.08a9.24,9.24,0,0,1-2.5-4.72,40.73,40.73,0,0,1-.58-7.87V25.57H50.66v-1.8h6.87V13.1a37.87,37.87,0,0,0,8.81-.95,27.43,27.43,0,0,0,7.47-3V23.77Z"/><path d="M132.23,60.85a12.2,12.2,0,0,0,1.13,6.07,4.19,4.19,0,0,0,4,1.89v1.9a55.44,55.44,0,0,0-5.61-.27,83.41,83.41,0,0,0-15.78,1.21V65.2Q111.88,72,101.55,72c-4.85,0-8.22-1.21-10.22-3.64a10.54,10.54,0,0,1-2-4.39,34.27,34.27,0,0,1-.64-7.29V33.6a12.2,12.2,0,0,0-1.13-6.07,4.2,4.2,0,0,0-3.93-1.9V23.77q2.8.27,5.61.27A81.07,81.07,0,0,0,105,22.83V61.68a7.27,7.27,0,0,0,1,4.29,3.94,3.94,0,0,0,3.4,1.4,6.4,6.4,0,0,0,4.54-2A6.06,6.06,0,0,0,116,60.74V33.62a12.24,12.24,0,0,0-1.13-6.07,4.21,4.21,0,0,0-3.93-1.89V23.77q2.81.27,5.61.27a81.07,81.07,0,0,0,15.78-1.21l-.05,38Z"/><path d="M188.63,66.82a4.2,4.2,0,0,0,3.93,1.9v1.9c-1.87-.18-3.74-.28-5.61-.28a81,81,0,0,0-15.78,1.22V65.2a13.39,13.39,0,0,1-4.48,5.14A12,12,0,0,1,160.14,72a16.41,16.41,0,0,1-13.36-6.2q-5.06-6.2-5.06-18.85,0-12,5.38-18.21t14.7-6.19a17.52,17.52,0,0,1,9.41,2.26V10.84a12.42,12.42,0,0,0-1.13-6.07,4.24,4.24,0,0,0-4-1.91V1q2.81.27,5.61.27A82.6,82.6,0,0,0,187.52,0V60.76a12.26,12.26,0,0,0,1.11,6.06Zm-19.37-1.43a6.12,6.12,0,0,0,2-4.65V26.67A8.23,8.23,0,0,0,167,25.45c-2.83,0-4.93,1.8-6.28,5.38s-2,9.07-2,16.35.55,12.63,1.63,15.6,2.56,4.48,4.43,4.48a6.39,6.39,0,0,0,4.56-1.87Z"/><path d="M217.25,62.29c0,2.43.38,4.18,1.13,5.11a4.82,4.82,0,0,0,3.92,1.41v1.9c-6.51-.23-10.79-.37-12.84-.37s-6.57.14-13.56.37v-1.9a4.84,4.84,0,0,0,3.93-1.41Q201,66,201,62.29V33.62a12.35,12.35,0,0,0-1.13-6.07,4.21,4.21,0,0,0-3.93-1.89V23.77q2.9.27,5.61.27a81.07,81.07,0,0,0,15.78-1.21l0,39.46ZM215.85,2a6.85,6.85,0,0,1,2.58,5.77,6.88,6.88,0,0,1-2.58,5.79,14.37,14.37,0,0,1-14.56,0,6.9,6.9,0,0,1-2.53-5.79A6.86,6.86,0,0,1,201.29,2a14.37,14.37,0,0,1,14.56,0Z"/><path d="M267.09,28.34q6.07,5.83,6.07,19t-6.07,18.9Q261,72,249.9,72t-17.18-5.79q-6.08-5.79-6.07-18.9t6.07-18.95q6.06-5.84,17.18-5.84t17.19,5.84ZM245.24,30q-1.73,5.7-1.72,17.29t1.72,17.23c1.16,3.76,2.68,5.65,4.62,5.65s3.45-1.89,4.61-5.65,1.82-9.52,1.82-17.23S255.72,33.8,254.58,30s-2.69-5.69-4.62-5.69-3.53,1.9-4.67,5.69Z"/><path d="M303.5,23.27a21,21,0,0,1,4.74,1.67,3.68,3.68,0,0,0,1.63.55c1.21,0,2-1,2.26-2.9h1.81q-.37,4.71-.37,16.29h-1.81a23.53,23.53,0,0,0-3.38-10.09,8.67,8.67,0,0,0-7.74-4.11A5.43,5.43,0,0,0,296.85,26a4.63,4.63,0,0,0-1.55,3.7,8,8,0,0,0,2,5.3,47.11,47.11,0,0,0,6.24,5.66c.12.06,1,.76,2.63,2.07a44.54,44.54,0,0,1,7.41,7.37,13.11,13.11,0,0,1,2.36,8,11.6,11.6,0,0,1-2.43,7.19,16,16,0,0,1-6.66,5A23.52,23.52,0,0,1,297.66,72a17.32,17.32,0,0,1-9.31-2.27,21.93,21.93,0,0,0-2.54-1.22,5.88,5.88,0,0,0-2-.36c-1.14,0-2,1.06-2.54,3.17h-1.8c.24-3.45.36-9.47.36-18.1h1.81a25.43,25.43,0,0,0,4,11.94,9.43,9.43,0,0,0,8,4.52,5.58,5.58,0,0,0,3.75-1.21,4.58,4.58,0,0,0,1.49-3.65,9.59,9.59,0,0,0-1-4.52,15.76,15.76,0,0,0-2.54-3.57c-1-1.06-2.61-2.58-4.85-4.58q-3.81-3.53-5.79-5.61a20.43,20.43,0,0,1-3.39-4.85,13.07,13.07,0,0,1-1.4-6.07,10.7,10.7,0,0,1,2.35-6.87,14.86,14.86,0,0,1,6.26-4.65,22.06,22.06,0,0,1,8.42-1.58,27.61,27.61,0,0,1,6.65.73Z"/></g></g></svg>