<svg xmlns="http://www.w3.org/2000/svg" viewBox="0 0 259.23 55"><title>cal_logo</title><g id="Layer_2" data-name="Layer 2"><g id="Layer_1-2" data-name="Layer 1"><path d="M44.56,27H41L31.27,54.52H0L33,42.61V39.07L0,27.39V18.67H14.22l3.63,9.94h3.5L11,0H54.51L24.4,10.87v3.54L54.52,25.08V54.52L44.56,27Zm-36,6.72L0,30.64V51L8.55,47.9V33.69ZM11.41,47s17-5.92,18.09-6.16v-.15c-1.06-.29-18.09-6.06-18.09-6.06V47Zm24.23,4.44-1.11,3.1H51l-1.13-3.1ZM.93,15.81H13.3S9.49,4.9,7.86,0H6.25C4.63,4.9.93,15.81.93,15.81ZM48.85,5.59V19.8l5.67,2V3.51L48.85,5.59Zm.08,43s-5.92-17-6.16-18.09h-.15c-.29,1.07-6.06,18.09-6.06,18.09Zm-3-42s-17,5.91-18.09,6.16v.14C29,13.1,46,18.87,46,18.87V6.51Z"/><path d="M72.84,30.77c-4.79,0-8.38-3.41-8.38-9,0-5,2.77-9.48,8.36-9.48a8.43,8.43,0,0,1,5,1.45l-1,2.32a6.24,6.24,0,0,0-3.91-1.32c-3.54,0-5.71,2.71-5.71,6.9s2.54,6.71,5.93,6.71A6.12,6.12,0,0,0,77,27l.9,2.2a8.84,8.84,0,0,1-5.06,1.59Z"/><path d="M86.58,30.82c-4.71,0-7.9-3.14-7.9-9.3,0-6.75,4.18-9.3,7.95-9.3,4.71,0,7.9,3.14,7.9,9.3,0,6.76-4.19,9.3-8,9.3Zm0-16.23c-3.83,0-5.21,3.34-5.21,6.93s1.43,6.93,5.21,6.93,5.22-3.34,5.22-6.93-1.43-6.93-5.22-6.93Z"/><path d="M108.55,30.35,101.07,20a15.3,15.3,0,0,1-1.7-2.82h-.05V30.35H96.85V12.75h2.5L106.53,23a22,22,0,0,1,1.94,3.17h.08V12.75H111v17.6Z"/><path d="M118.55,30.77a7.9,7.9,0,0,1-4.69-1.44l.9-2.2a6.64,6.64,0,0,0,4,1.35c1.75,0,3.47-.8,3.47-2.74,0-1.65-1.28-2.32-2.65-2.87L118,22.22c-2.17-.95-3.84-2.19-3.84-4.89,0-2.91,2.4-5.06,5.76-5.06a7.71,7.71,0,0,1,4.49,1.3l-.92,2.17a5.54,5.54,0,0,0-3.57-1.22c-2.27,0-3.16,1.32-3.16,2.54,0,1.47,1.22,2.14,2.44,2.67l1.52.64c2.24,1,4,2.22,4,5,0,3.82-3,5.41-6.23,5.41Z"/><polygon points="127.72 30.35 127.72 12.75 137.62 12.75 137.62 15.11 130.39 15.11 130.39 19.88 137.37 19.88 137.37 22.17 130.39 22.17 130.39 27.98 137.99 27.98 137.99 30.35 127.72 30.35 127.72 30.35"/><polygon points="141.36 30.35 141.36 12.75 144 12.75 144 30.35 141.36 30.35 141.36 30.35"/><polygon points="148.02 30.35 148.02 12.75 150.69 12.75 150.69 27.98 158.41 27.98 158.41 30.35 148.02 30.35 148.02 30.35"/><path d="M167,30.35h-3.67V12.75h3.72c5.46,0,10,1.84,10,8.42,0,6.76-4.36,9.18-10,9.18Zm.07-16.76h-2.86V29.5H167c4.54,0,9.18-1.65,9.18-8.33s-5.29-7.58-9.13-7.58Z"/><polygon points="179.96 30.35 179.96 12.75 188.38 12.75 188.38 13.57 180.83 13.57 180.83 20.55 188.14 20.55 188.14 21.4 180.83 21.4 180.83 29.52 188.76 29.52 188.76 30.35 179.96 30.35 179.96 30.35"/><path d="M195.37,30.77A5.62,5.62,0,0,1,191,28.83l.65-.6A4.85,4.85,0,0,0,195.47,30c1.89,0,4.29-1.12,4.29-3.91,0-2.32-1.28-3.24-3.17-4.09l-1.85-.82c-1.89-.85-3.34-2-3.34-4.34a4.63,4.63,0,0,1,4.91-4.54,4.86,4.86,0,0,1,4,1.9l-.62.6A4.16,4.16,0,0,0,196.29,13a3.67,3.67,0,0,0-4,3.72c0,1.94,1.19,2.92,2.79,3.61l1.84.8c2.2.95,3.72,2.12,3.72,4.81,0,3.07-2.67,4.79-5.26,4.79Z"/><path d="M216.84,30.35l-1.55-4.22h-6.95l-1.5,4.22h-2.62l6.24-17.65h2.86l6.34,17.65ZM212.7,18.5a26,26,0,0,1-.85-3.11h-.07a24.77,24.77,0,0,1-.88,3.14L209,23.94h5.59L212.7,18.5Z"/><path d="M231.17,30.35l-4.31-6.53c-.55-.85-1-.9-1.42-.9h-1.72v7.43h-2.64V12.75h4.63c3.57,0,7.11.82,7.11,4.88a4.52,4.52,0,0,1-4.09,4.56c1,1.5,4,5.91,5.69,8.16ZM225.74,15h-2v5.71h2.12c1.74,0,4.24-.42,4.24-2.94S227.56,15,225.74,15Z"/><polygon points="242.4 15.11 242.4 30.35 239.75 30.35 239.75 15.11 234.07 15.11 234.07 12.75 248.16 12.75 248.16 15.11 242.4 15.11 242.4 15.11"/><path d="M253,30.77a7.87,7.87,0,0,1-4.68-1.44l.89-2.2a6.69,6.69,0,0,0,4,1.35c1.74,0,3.46-.8,3.46-2.74,0-1.65-1.27-2.32-2.64-2.87l-1.52-.65c-2.17-.95-3.84-2.19-3.84-4.89,0-2.91,2.39-5.06,5.76-5.06a7.71,7.71,0,0,1,4.49,1.3L258,15.74a5.54,5.54,0,0,0-3.57-1.22c-2.27,0-3.17,1.32-3.17,2.54,0,1.47,1.22,2.14,2.44,2.67l1.53.64c2.24,1,4,2.22,4,5,0,3.82-3,5.41-6.24,5.41Z"/><path d="M69.48,54.53H65.81V36.92h3.71c5.47,0,10,1.85,10,8.43,0,6.76-4.36,9.18-10,9.18Zm.07-16.76H66.68V53.68H69.5c4.54,0,9.17-1.65,9.17-8.33s-5.28-7.58-9.12-7.58Z"/><polygon points="82.42 54.53 82.42 36.92 90.84 36.92 90.84 37.75 83.29 37.75 83.29 44.73 90.59 44.73 90.59 45.58 83.29 45.58 83.29 53.7 91.22 53.7 91.22 54.53 82.42 54.53 82.42 54.53"/><polygon points="98.15 54.53 98.15 36.92 100.82 36.92 100.82 52.16 108.55 52.16 108.55 54.53 98.15 54.53 98.15 54.53"/><path d="M116.87,55c-4.71,0-7.9-3.14-7.9-9.3,0-6.76,4.19-9.3,8-9.3,4.72,0,7.91,3.14,7.91,9.3,0,6.76-4.19,9.3-8,9.3Zm0-16.23c-3.84,0-5.21,3.34-5.21,6.93s1.42,6.93,5.21,6.93,5.21-3.34,5.21-6.93-1.42-6.93-5.21-6.93Z"/><path d="M138.84,54.53,131.36,44.2a14.73,14.73,0,0,1-1.69-2.81h0V54.53h-2.47V36.92h2.49l7.18,10.25a22.44,22.44,0,0,1,2,3.17h.07V36.92h2.44V54.53Z"/><path d="M152.08,55c-5.66,0-8.48-3.81-8.48-9.12,0-4.87,2.85-9.38,8.66-9.38A8.86,8.86,0,0,1,157.64,38l-1,2.22a6.7,6.7,0,0,0-4.21-1.43c-4.11,0-6.11,3.22-6.11,7,0,4.11,2.17,6.88,5.91,6.88a11.35,11.35,0,0,0,3-.4V48.39h-3.64V46h6.21v7.91a17.6,17.6,0,0,1-5.69,1Z"/><path d="M167.67,55c-5,0-7.16-2.64-7.16-7.3V36.92h2.64V47.6c0,2.89,1.15,5,4.54,5,3.19,0,4.51-1.89,4.51-5V36.92h2.6V47.65c0,4.66-2.15,7.3-7.13,7.3Z"/><polygon points="177.94 54.53 177.94 36.92 187.84 36.92 187.84 39.29 180.61 39.29 180.61 44.05 187.59 44.05 187.59 46.35 180.61 46.35 180.61 52.16 188.21 52.16 188.21 54.53 177.94 54.53 177.94 54.53"/><path d="M198.38,55c-5,0-7.15-2.64-7.15-7.3V36.92h2.64V47.6c0,2.89,1.15,5,4.54,5,3.19,0,4.51-1.89,4.51-5V36.92h2.59V47.65c0,4.66-2.14,7.3-7.13,7.3Z"/><polygon points="209.78 54.53 209.78 36.92 212.42 36.92 212.42 54.53 209.78 54.53 209.78 54.53"/><polygon points="216.44 54.53 216.44 36.92 219.1 36.92 219.1 52.16 226.83 52.16 226.83 54.53 216.44 54.53 216.44 54.53"/></g></g></svg>